# xmcd CD database file
#
# Track frame offsets:
#	150
#	39390
#	58347
#	91532
#	136995
#	192215
#	218147
#	246877
#
# Disc length: 3715 seconds
#
# Revision: 0
# Processed by: cddbd v1.5.1PL0 Copyright (c) Steve Scherf et al.
# Submitted via: CDex 1.51
#
DISCID=6a0e8108
DTITLE=Bart Defoort Quartet - Moving
DYEAR=1997
DGENRE=Jazz
TTITLE0=Blonx
TTITLE1=So Long
TTITLE2=Once We Were
TTITLE3=Serious Fun
TTITLE4=Old Sketch
TTITLE5=Fearless
TTITLE6=Fanou
TTITLE7=Darn that dream
EXTD=YEAR: 1997
EXTT0=
EXTT1=
EXTT2=
EXTT3=
EXTT4=
EXTT5=
EXTT6=
EXTT7=
PLAYORDER=
